PathFileType	4	(X/Y/Z)	C:\Users\Basilio\Documents\Thesis Gigler\squatting_fais\c3dfiles\054\SLS_front_pre5\markers_experimental.trc
DataRate	CameraRate	NumFrames	NumMarkers	Units	OrigDataRate	OrigDataStartFrame	OrigNumFrames
200.000000	200.000000	4	61	mm	200.000000	176	1413
Frame#	Time	FHD			LBHD			RBHD			C7			T10			CLAV			LSHO			LUUPA			LMUPA			LDUPA			LLEP			LMEP			LRAD			LUL			LRFIN			RSHO			RUPA1			RMUPA			RDUPA			RLEP			RMEP			RRAD			RUL			RUFIN			LASI			RASI			USACR			LSACR			RSACR			LTHI1			LTHI2			LTHI3			LTHI4			LLFC			LMFC			LTIB1			LTIB2			LTIB3			LTIB4			LLMAL			LMMAL			LHEE			LMT1			LMT2			LMT5			RTHI			RTHI2			RTHI3			RTHI4			RLFC			RMFC			RTIB1			RTIB2			RTIB3			RTIB4			RLMAL			RMMAL			RHEE			RMT1			RMT2			RMT5			
		X1	Y1	Z1	X2	Y2	Z2	X3	Y3	Z3	X4	Y4	Z4	X5	Y5	Z5	X6	Y6	Z6	X7	Y7	Z7	X8	Y8	Z8	X9	Y9	Z9	X10	Y10	Z10	X11	Y11	Z11	X12	Y12	Z12	X13	Y13	Z13	X14	Y14	Z14	X15	Y15	Z15	X16	Y16	Z16	X17	Y17	Z17	X18	Y18	Z18	X19	Y19	Z19	X20	Y20	Z20	X21	Y21	Z21	X22	Y22	Z22	X23	Y23	Z23	X24	Y24	Z24	X25	Y25	Z25	X26	Y26	Z26	X27	Y27	Z27	X28	Y28	Z28	X29	Y29	Z29	X30	Y30	Z30	X31	Y31	Z31	X32	Y32	Z32	X33	Y33	Z33	X34	Y34	Z34	X35	Y35	Z35	X36	Y36	Z36	X37	Y37	Z37	X38	Y38	Z38	X39	Y39	Z39	X40	Y40	Z40	X41	Y41	Z41	X42	Y42	Z42	X43	Y43	Z43	X44	Y44	Z44	X45	Y45	Z45	X46	Y46	Z46	X47	Y47	Z47	X48	Y48	Z48	X49	Y49	Z49	X50	Y50	Z50	X51	Y51	Z51	X52	Y52	Z52	X53	Y53	Z53	X54	Y54	Z54	X55	Y55	Z55	X56	Y56	Z56	X57	Y57	Z57	X58	Y58	Z58	X59	Y59	Z59	X60	Y60	Z60	X61	Y61	Z61	

177	0.88	-174.9415435791016	1791.630004882813	-1015.164001464844	-340.7367248535157	1734.335327148438	-1077.130493164063	-348.3092651367188	1733.82421875	-936.8626708984377	-377.4845886230469	1562.265625	-993.7485961914065	-395.6570739746095	1231.544067382813	-996.309265136719	-231.5653839111329	1510.790283203125	-1007.618408203125	-318.7611389160157	1545.586791992188	-1167.830688476563	-334.1752929687501	1322.414794921875	-1288.124267578125	-287.0737609863282	1313.084106445313	-1287.4033203125	-309.2808532714844	1258.568603515625	-1298.595336914063	-282.8698730468751	1213.19580078125	-1303.98193359375	-313.7282714843751	1181.4873046875	-1234.759155273438	-119.7540359497071	1003.7734375	-1293.40478515625	-167.2361755371094	974.7803955078127	-1349.388793945313	-73.01772308349611	930.260437011719	-1325.494262695313	-288.5603942871094	1545.578125	-837.0386962890627	-255.0539093017579	1320.640380859375	-719.7586669921876	-208.3667907714844	1311.640014648438	-727.6134033203126	-229.4039001464844	1256.004150390625	-714.0786132812501	-212.1951599121094	1219.870361328125	-715.8731689453126	-247.1358337402344	1192.645874023438	-781.8156738281252	-31.86380577087403	1005.787048339844	-746.3096313476564	-83.09043121337892	992.4523925781252	-686.8905029296876	15.73411560058594	946.9256591796877	-715.8498535156251	-201.6392974853516	1063.15283203125	-1117.18212890625	-206.1353759765626	1070.798828125	-864.2224731445315	-393.9331970214845	1143.647216796875	-994.6179809570315	-398.5239868164064	1111.727294921875	-1022.817199707031	-398.0001525878907	1110.984130859375	-966.1777954101565	-282.2702941894532	817.3322753906252	-1192.11083984375	-249.9229583740235	738.7468261718751	-1182.573364257813	-203.0548706054688	743.3341674804689	-1174.284912109375	-279.3342590332032	687.3483276367189	-1165.1259765625	-281.1655883789063	532.8260498046876	-1136.168212890625	-258.7835693359376	535.5747680664064	-999.6773071289065	-249.2761840820313	369.0817871093751	-1073.331787109375	-297.5839843750001	321.4637756347657	-1129.884887695313	-260.8682250976563	319.0045776367188	-1103.200317382813	-272.9017028808594	244.6821441650391	-1064.369750976563	-339.2328491210938	113.4971313476563	-1097.62841796875	-308.8100280761719	133.8941345214844	-1007.042541503906	-408.2802124023439	104.933837890625	-1038.504760742188	-198.4844818115235	56.47932052612306	-1017.516723632813	-189.9585571289063	55.30134201049806	-1066.690673828125	-242.5541381835938	40.45282745361329	-1117.853881835938	-264.6593017578126	771.267028808594	-759.9390869140626	-221.7485504150391	720.8111572265626	-751.4173583984376	-188.7033081054688	723.5053710937501	-756.8796386718751	-241.2808990478516	639.5109863281251	-759.6232910156251	-246.1224975585938	552.9721679687501	-751.6840820312501	-193.7008819580079	536.4628906250001	-878.981384277344	-209.0159912109376	438.8779602050782	-744.5014038085939	-292.7826843261719	384.6971435546876	-705.9808959960939	-249.9631042480469	368.3383483886719	-713.0179443359376	-244.6548461914063	313.6725769042969	-731.2196655273439	-336.9438781738282	154.0849761962891	-692.6268920898439	-292.6692504882813	153.8536682128907	-777.7437744140627	-401.7708129882814	136.8098754882813	-751.0512084960939	-195.8016357421876	51.33084106445314	-751.1321411132814	-193.7957763671876	54.93907546997072	-703.4673461914064	-247.5914306640626	52.52958297729494	-657.5489501953126	
178	0.885	-174.9016265869141	1791.526123046875	-1016.603698730469	-341.2906494140626	1734.288940429688	-1078.947265625	-348.6195068359376	1733.897094726563	-938.6047363281252	-377.7182922363282	1562.4326171875	-995.409362792969	-395.8521728515626	1231.617309570313	-997.7801513671877	-231.9544372558594	1510.507568359375	-1009.260864257813	-318.7468261718751	1545.537109375	-1169.37939453125	-333.9505615234376	1322.234252929688	-1289.819580078125	-285.9640808105469	1313.047241210938	-1289.171630859375	-308.5462646484376	1258.735229492188	-1300.42724609375	-281.8785095214844	1213.493896484375	-1305.939086914063	-312.4757385253907	1181.589111328125	-1236.806518554688	-118.4712295532227	1004.369262695313	-1295.950317382813	-165.6655731201172	975.4536743164065	-1351.880004882813	-71.21142578125001	931.2432861328127	-1328.482543945313	-288.8346252441407	1545.62744140625	-838.6968383789065	-254.8343811035157	1320.845825195313	-721.2326660156251	-208.0199890136719	1312.17431640625	-729.0742797851564	-228.7723083496094	1256.517456054688	-715.4130859375001	-211.5148468017579	1220.32666015625	-717.3010253906251	-246.2066955566407	1192.900268554688	-782.9878540039065	-29.41288948059083	1007.774780273438	-747.4765625000001	-80.88966369628908	993.8127441406252	-688.1414184570314	18.49952697753907	949.005798339844	-717.0093383789064	-203.3072814941407	1062.630126953125	-1117.0869140625	-206.9893188476563	1071.074829101563	-865.2763671875002	-394.3808593750001	1143.62890625	-995.953063964844	-398.8887023925782	1111.765625	-1024.10595703125	-398.5838623046876	1110.841430664063	-967.620056152344	-282.1468200683594	817.0065917968752	-1192.785766601563	-249.9772644042969	738.5286865234376	-1183.170654296875	-203.218490600586	743.1607666015626	-1174.87255859375	-279.3336791992188	687.2020263671876	-1165.671752929688	-281.3580322265626	532.7673339843751	-1136.707397460938	-259.3587036132813	535.4008178710939	-999.9647216796877	-249.3511047363282	369.0655822753907	-1073.534423828125	-297.5827331542969	321.3490600585938	-1130.010620117188	-260.8573303222657	318.9337158203126	-1103.313720703125	-272.8667907714844	244.681137084961	-1064.408447265625	-339.2318725585938	113.4388732910157	-1097.653564453125	-308.8266601562501	133.8485260009766	-1007.027160644531	-408.3146972656251	104.9105453491211	-1038.452758789063	-198.5313415527344	56.36469650268556	-1017.430053710938	-189.9272918701172	55.30262756347658	-1066.665893554688	-242.5708923339844	40.48730850219727	-1117.846923828125	-262.6315917968751	771.317077636719	-760.8608398437501	-219.6729431152344	721.3120727539064	-752.2858886718751	-186.4227600097657	724.5254516601564	-757.6552734375001	-237.9694366455079	639.8344726562501	-760.3203125000001	-242.6938018798829	553.6420288085939	-752.2404174804689	-190.266342163086	537.2511596679689	-879.3695068359377	-206.4545440673829	439.5827026367189	-745.0059814453126	-290.5736999511719	385.829803466797	-706.9064941406251	-247.616439819336	369.0079956054688	-713.7077026367189	-242.5370483398438	314.4974060058594	-732.0687255859376	-335.8421936035157	155.6560821533203	-693.5625000000001	-291.4396057128907	154.7169494628907	-778.5836181640627	-400.6099853515626	138.466552734375	-752.1304321289064	-195.4176177978516	51.53236770629884	-751.4589843750001	-193.5840759277344	55.37604904174806	-703.6798706054689	-247.2829589843751	53.54316329956056	-658.0217895507814	
179	0.89	-175.0116577148438	1791.40087890625	-1018.198059082031	-338.7113952636719	1734.35400390625	-1080.449951171875	-348.8974609375001	1733.947631835938	-940.3461914062502	-378.1100158691407	1562.45556640625	-997.0555419921877	-396.4375000000001	1231.693481445313	-999.2058105468752	-232.3515777587891	1510.542846679688	-1010.731323242188	-318.8666381835938	1545.508666992188	-1171.022583007813	-332.9117126464844	1322.488159179688	-1291.604125976563	-285.7334899902344	1313.572875976563	-1291.01904296875	-307.4513549804688	1259.0244140625	-1302.4267578125	-280.8913269042969	1213.986938476563	-1307.984375	-311.3738403320313	1181.631591796875	-1238.942504882813	-117.0205230712891	1005.35009765625	-1298.626953125	-164.198486328125	976.224304199219	-1354.432006835938	-69.62917327880861	932.2649536132815	-1331.389770507813	-289.2545166015626	1545.75048828125	-840.457702636719	-254.7094421386719	1321.109741210938	-722.8837890625001	-207.8043975830079	1312.693481445313	-730.2482299804689	-228.4282836914063	1256.963745117188	-716.8222045898439	-210.7703552246094	1221.026977539063	-718.3079223632814	-245.2342224121094	1193.264404296875	-784.1975097656252	-27.094144821167	1009.567749023438	-748.7066040039064	-78.51988220214845	995.277526855469	-689.4241943359376	21.23301506042481	951.2603759765627	-718.2633056640626	-201.6848907470704	1062.988525390625	-1119.002685546875	-208.0763397216797	1071.09423828125	-866.0645751953127	-395.1357727050782	1143.734252929688	-997.3493652343752	-399.1737060546876	1111.69970703125	-1025.45068359375	-399.1315307617189	1110.874389648438	-968.7915649414065	-282.4842224121094	816.855651855469	-1193.730712890625	-250.1533203125001	738.3821411132814	-1183.75634765625	-203.3544464111329	743.0343017578126	-1175.4228515625	-279.4592590332032	687.0725708007814	-1166.27294921875	-281.3693847656251	532.5442504882814	-1137.033081054688	-259.5454711914063	535.3818969726564	-1000.381286621094	-249.4497680664063	369.0305175781251	-1073.742797851563	-297.4862365722657	321.2001647949219	-1130.092895507813	-260.6986999511719	318.7066650390626	-1103.4375	-272.8747863769532	244.6699523925782	-1064.487548828125	-339.2248840332032	113.4356460571289	-1097.651611328125	-308.8478393554688	133.806625366211	-1006.961730957031	-408.3078613281251	104.883544921875	-1038.451538085938	-198.5796356201172	56.29326629638673	-1017.37744140625	-189.9324951171875	55.30733108520509	-1066.6494140625	-242.5596618652344	40.52112197875977	-1117.834350585938	-261.0335693359376	771.4636840820315	-761.5403442382814	-217.2345733642579	721.7592163085939	-753.5118408203126	-184.3180236816407	725.3594970703126	-758.6750488281251	-234.8660125732422	640.2828369140626	-760.9418945312501	-239.5033416748047	554.2966918945314	-752.8594360351564	-185.8327331542969	538.3380126953126	-880.0484619140627	-203.6787261962891	440.195281982422	-745.4593505859376	-288.1708374023438	386.8619384765626	-707.6204833984376	-245.2099151611329	369.8881225585938	-714.6085205078126	-240.3522186279297	315.3180236816407	-732.6632080078126	-334.7549438476563	157.2987823486328	-694.6649169921876	-290.0653076171876	155.6469268798828	-779.430603027344	-399.6567687988282	140.2139892578125	-753.1447143554689	-194.9168395996094	51.84057998657228	-751.7910766601564	-193.1275482177735	56.03725814819337	-704.1035156250001	-247.0555572509766	54.67481231689455	-658.6018066406251	
180	0.895	-175.13330078125	1791.436401367188	-1019.830871582031	-338.7434387207032	1734.302490234375	-1082.160034179688	-349.1437072753907	1734.031616210938	-941.9763793945315	-378.2696838378907	1562.461669921875	-998.7671508789065	-396.644012451172	1231.667724609375	-1000.550903320313	-232.7894897460938	1510.563720703125	-1012.198669433594	-318.4216003417969	1545.399658203125	-1172.59228515625	-332.4186401367188	1322.403076171875	-1293.330200195313	-284.4322814941407	1313.660888671875	-1292.66650390625	-306.7061157226563	1259.2392578125	-1304.192749023438	-279.7924194335938	1214.320678710938	-1309.909423828125	-310.0604858398438	1181.800537109375	-1241.001586914063	-114.7679901123047	1006.411254882813	-1301.449462890625	-162.401351928711	977.0442504882815	-1356.962524414063	-67.7659378051758	933.2702636718752	-1334.42626953125	-289.4939270019532	1545.8779296875	-841.9919433593752	-254.7799377441407	1321.537231445313	-724.2946166992189	-207.854965209961	1313.238525390625	-731.5531005859376	-228.0583038330079	1257.412475585938	-718.1038818359376	-209.7993469238282	1221.465087890625	-719.6535034179689	-244.1802673339844	1193.658813476563	-785.5129394531252	-24.77149963378907	1011.555114746094	-750.0163574218751	-76.21651458740236	996.8061523437502	-690.6690063476564	23.92738151550293	953.526306152344	-719.5084838867189	-202.0688018798829	1062.913818359375	-1119.865234375	-208.5785675048829	1071.482788085938	-866.9570922851565	-395.4213256835939	1143.713012695313	-998.643981933594	-399.5289916992189	1111.61572265625	-1026.652465820313	-399.6690673828126	1110.86279296875	-970.0716552734377	-282.6814880371094	816.706726074219	-1194.340209960938	-250.2141571044922	738.3103027343751	-1184.484375	-203.4731140136719	742.9137573242189	-1175.943115234375	-279.4449157714844	686.9313964843751	-1166.891845703125	-281.4175109863282	532.4420776367189	-1137.537231445313	-259.7777099609376	535.4122924804689	-1000.834838867188	-249.5101318359376	369.0052185058594	-1073.980102539063	-297.5749816894532	321.0463867187501	-1130.2607421875	-260.6854858398438	318.6469726562501	-1103.606811523438	-272.9621582031251	244.6076660156251	-1064.516967773438	-339.2532958984376	113.4154815673828	-1097.654296875	-308.8743286132813	133.7858428955078	-1006.957824707031	-408.2824096679689	104.8339157104492	-1038.4521484375	-198.5777740478516	56.21498489379884	-1017.386596679688	-189.9611358642578	55.33931732177736	-1066.628662109375	-242.5564270019532	40.51398086547852	-1117.836303710938	-259.3354492187501	771.5446777343752	-762.4135131835939	-215.0629577636719	722.4426879882814	-754.3823242187501	-181.9864807128907	726.1115722656251	-759.5231323242189	-232.002182006836	640.6731567382814	-761.7631835937501	-236.3115692138672	554.9835815429689	-753.4611206054689	-183.4701232910157	538.8861083984376	-880.318298339844	-201.0780639648438	440.7978820800782	-746.2099609375001	-285.8100891113282	387.9493103027345	-708.5406494140626	-242.8577575683594	370.9466857910157	-715.4356079101564	-238.7782592773438	316.1220703125001	-733.3193969726564	-333.8211364746094	158.7493896484375	-695.5760498046876	-288.9157409667969	156.9263610839844	-780.4232177734377	-398.5569458007814	142.1756744384766	-754.3922729492189	-194.3381042480469	52.26216888427736	-752.2092895507814	-192.3237304687501	56.8048782348633	-704.8341064453126	-246.6170043945313	55.81991195678712	-659.3465576171876	
